<?xml version="1.0" encoding="utf-8"?>
<!-- Generator: Adobe Illustrator 21.0.0, SVG Export Plug-In . SVG Version: 6.00 Build 0)  -->
<svg version="1.1" id="Layer_1" xmlns="http://www.w3.org/2000/svg" xmlns:xlink="http://www.w3.org/1999/xlink" x="0px" y="0px"
	 viewBox="0 0 256 256" style="enable-background:new 0 0 256 256;" xml:space="preserve">
<style type="text/css">
	.st0{fill:#FCACB6;}
	.st1{fill:#FC7783;}
	.st2{fill:#EA4647;}
	.st3{fill:#55ACD5;}
	.st4{fill:#FFCD29;}
	.st5{fill:#6DCC6D;}
	.st6{fill:#231F20;}
</style>
<g id="Layer_16">
	<path class="st0" d="M218.5,61.7c-23.8-23.8-59.9-30.2-90.5-16C87.8,27,40.1,44.4,21.5,84.6c-14.2,30.5-7.8,66.7,16,90.5l56.6,56.6
		l0.2,0.2c18.6,18.5,48.7,18.5,67.4,0.1l0.2-0.2l56.6-56.6C249.8,143.8,249.8,93,218.5,61.7C218.5,61.7,218.5,61.7,218.5,61.7z"/>
	<path class="st1" d="M206.1,74c-20.8-20.8-53.3-24.3-78.1-8.5C98.8,46.8,60,55.4,41.4,84.6c-15.8,24.8-12.3,57.3,8.5,78.1
		l56.6,56.6l0.2,0.2c11.8,11.7,30.9,11.8,42.8,0l0.2-0.2l56.6-56.6C230.6,138.2,230.6,98.5,206.1,74C206.1,74,206.1,74,206.1,74z"/>
	<path class="st2" d="M193.8,86.4c-17.7-17.7-46.3-17.7-64,0c-1,1-2.6,1-3.5,0c-17.7-17.7-46.3-17.7-64,0c0,0,0,0,0,0l0,0
		c-17.7,17.7-17.7,46.3,0,64l56.6,56.6l0.1,0.1c5.1,5,13.3,5,18.3-0.1l56.6-56.6C211.5,132.7,211.5,104,193.8,86.4z"/>
	<path class="st2" d="M33.1,40.7h-1.8v-1.8c0-1.4-1.1-2.5-2.5-2.5s-2.5,1.1-2.5,2.5v1.8h-1.8c-1.4,0-2.5,1.1-2.5,2.5
		s1.1,2.5,2.5,2.5h1.8v1.8c0,1.4,1.1,2.5,2.5,2.5s2.5-1.1,2.5-2.5v-1.8h1.8c1.4,0,2.5-1.1,2.5-2.5S34.4,40.7,33.1,40.7z"/>
	<path class="st3" d="M47.3,2c0-0.2-0.1-0.3-0.1-0.5c-0.1-0.2-0.1-0.3-0.2-0.4c-0.1-0.1-0.2-0.3-0.3-0.4c-1-0.9-2.5-0.9-3.5,0
		c-0.1,0.1-0.2,0.2-0.3,0.4c-0.1,0.1-0.2,0.3-0.2,0.4c-0.1,0.2-0.1,0.3-0.1,0.5c0,0.2,0,0.3-0.1,0.5c0,0.2,0,0.3,0.1,0.5
		c0,0.2,0.1,0.3,0.1,0.5c0.1,0.1,0.1,0.3,0.2,0.4C42.8,4,42.9,4.1,43,4.2c1,1,2.5,1,3.5,0c0,0,0,0,0,0c0.1-0.1,0.2-0.2,0.3-0.4
		c0.1-0.1,0.2-0.3,0.2-0.4c0.1-0.1,0.1-0.3,0.1-0.5c0-0.2,0.1-0.3,0-0.5C47.3,2.3,47.3,2.1,47.3,2z"/>
	<path class="st3" d="M203.3,225.3c-0.1-0.3-0.2-0.6-0.4-0.9c-0.1-0.1-0.2-0.3-0.3-0.4c-1-0.9-2.5-0.9-3.5,0
		c-0.1,0.1-0.2,0.2-0.3,0.4c-0.1,0.1-0.2,0.3-0.2,0.4c-0.1,0.2-0.1,0.3-0.1,0.5c-0.1,0.3-0.1,0.7,0,1c0,0.2,0.1,0.3,0.1,0.5
		c0.1,0.1,0.1,0.3,0.2,0.4c0.1,0.1,0.2,0.3,0.3,0.4c1,1,2.5,1,3.5,0c0,0,0,0,0,0c0.1-0.1,0.2-0.2,0.3-0.4c0.1-0.1,0.2-0.3,0.2-0.4
		c0.1-0.1,0.1-0.3,0.1-0.5C203.4,225.9,203.4,225.6,203.3,225.3z"/>
	<path class="st4" d="M80.4,18c-4.1-0.8-7.2-4-8-8c0-0.1-0.1-0.2-0.2-0.2c-0.1,0-0.1,0.1-0.2,0.2c-0.8,4.1-4,7.2-8,8
		c-0.1,0-0.2,0.1-0.2,0.2c0,0.1,0.1,0.1,0.2,0.2c4.1,0.8,7.2,4,8,8c0,0.1,0.1,0.2,0.2,0.2c0.1,0,0.1-0.1,0.2-0.2c0.8-4.1,4-7.2,8-8
		c0.1,0,0.2-0.1,0.2-0.2C80.6,18,80.5,18,80.4,18z"/>
	<path class="st5" d="M193.1,247.5c-4.1-0.8-7.2-4-8-8c0-0.1-0.1-0.2-0.2-0.2c-0.1,0-0.1,0.1-0.2,0.2c-0.8,4.1-4,7.2-8,8
		c-0.1,0-0.2,0.1-0.1,0.2c0,0.1,0.1,0.1,0.1,0.1c4.1,0.8,7.2,4,8,8c0,0.1,0.1,0.2,0.2,0.2c0.1,0,0.1-0.1,0.2-0.2c0.8-4.1,4-7.2,8-8
		c0.1,0,0.2-0.1,0.1-0.2C193.2,247.5,193.1,247.5,193.1,247.5z"/>
	<path class="st6" d="M220.2,59.9c-24.3-24.2-60.9-30.9-92.2-17c-31.3-13.9-68-7.1-92.2,17c-32.3,32.3-32.3,84.6,0,116.9
		c0,0,0,0,0,0l56.6,56.6l0.1,0.1c19.6,19.5,51.2,19.5,70.9,0.1l56.9-56.9C252.5,144.5,252.5,92.2,220.2,59.9z M216.7,173.3
		l-56.6,56.6l-0.2,0.2c-17.7,17.5-46.2,17.4-63.8-0.1l0,0l-56.7-56.7C9,142.9,9.1,93.7,39.5,63.4c23-23,57.9-29.1,87.5-15.5
		c0.7,0.3,1.4,0.3,2.1,0c38.9-18.1,85.1-1.2,103.2,37.7C246,115.2,239.8,150.2,216.7,173.3z"/>
	<path class="st6" d="M215.7,15.7c-1.2-0.6-2.7-0.2-3.4,1l-7.4,13.9c-0.7,1.2-0.2,2.7,1,3.4c1.2,0.7,2.7,0.2,3.4-1c0,0,0,0,0,0
		l7.4-13.9C217.4,17.8,216.9,16.3,215.7,15.7z"/>
	<path class="st6" d="M240.5,38.2c-0.7-1.2-2.2-1.7-3.4-1c0,0,0,0,0,0l-13.8,7.6c-1.2,0.7-1.7,2.2-1,3.4c0.7,1.2,2.2,1.7,3.4,1l0,0
		l13.8-7.6C240.7,40.9,241.1,39.4,240.5,38.2C240.5,38.2,240.5,38.2,240.5,38.2z"/>
	<path class="st6" d="M185.9,10.1c-0.1-1.4-1.3-2.4-2.7-2.3c-1.4,0.1-2.4,1.3-2.3,2.7l0,0l1.4,15.7c0.1,1.3,1.2,2.3,2.5,2.3
		c0.1,0,0.2,0,0.2,0c1.4-0.1,2.4-1.3,2.3-2.7c0,0,0,0,0,0L185.9,10.1z"/>
	<path class="st6" d="M207.9,72.2c-21.3-21.1-54.2-25.1-79.9-9.7c-25.7-15.4-58.6-11.4-79.9,9.7c-25.5,25.5-25.5,66.8,0,92.2
		l56.6,56.6l0.1,0.1l0,0c12.8,12.7,33.5,12.7,46.3,0.1l56.8-56.8C233.3,139,233.3,97.7,207.9,72.2z M204.4,161l-56.6,56.6l-0.2,0.2
		c-10.9,10.8-28.4,10.7-39.3,0L51.6,161c-23.5-23.5-23.5-61.7,0-85.2c20.1-19.9,51.2-23.3,75-8.2c0.8,0.5,1.9,0.5,2.7,0
		c28-17.9,65.3-9.7,83.2,18.3C227.7,109.8,224.3,141,204.4,161L204.4,161z"/>
	<path class="st6" d="M195.5,84.6C176.9,66,146.7,66,128,84.6c-18.7-18.7-48.9-18.7-67.6,0s-18.7,48.9,0,67.6l56.6,56.6l0.1,0.1
		c2.9,2.9,6.8,4.5,10.8,4.5c4.1,0,8.1-1.6,11-4.5l56.6-56.6C214.2,133.5,214.2,103.3,195.5,84.6z M192,148.6l-56.6,56.6
		c-4.1,4.1-10.7,4.1-14.8,0.1l-1.8,1.8l1.7-1.9L64,148.6c-16.7-16.7-16.7-43.8,0-60.5s43.8-16.7,60.5,0c2,1.9,5.1,1.9,7.1,0
		c16.7-16.7,43.8-16.7,60.5,0S208.7,131.9,192,148.6L192,148.6z"/>
</g>
</svg>
